<svg width="51" height="51" viewBox="0 0 51 51" fill="none" xmlns="http://www.w3.org/2000/svg">
<circle cx="25.5" cy="25.5" r="25.5" fill="#212121"/>
<path d="M34.9636 20.3875L28.2993 27.0517C27.5563 27.7929 26.5495 28.2091 25.5 28.2091C24.4505 28.2091 23.4437 27.7929 22.7007 27.0517L16.0364 20.3875C16.0253 20.5125 16 20.6257 16 20.75V30.25C16.0013 31.2995 16.4187 32.3056 17.1608 33.0476C17.9028 33.7897 18.9089 34.2071 19.9583 34.2084H31.0417C32.0911 34.2071 33.0972 33.7897 33.8392 33.0476C34.5813 32.3056 34.9987 31.2995 35 30.25V20.75C35 20.6257 34.9747 20.5125 34.9636 20.3875Z" fill="#D2D2D2"/>
<path d="M27.1798 25.9323L34.4109 18.7005C34.0606 18.1196 33.5665 17.6389 32.9763 17.3045C32.3862 16.9702 31.7198 16.7936 31.0415 16.7917H19.9582C19.2799 16.7936 18.6136 16.9702 18.0234 17.3045C17.4332 17.6389 16.9392 18.1196 16.5889 18.7005L23.82 25.9323C24.2661 26.3767 24.8702 26.6262 25.4999 26.6262C26.1296 26.6262 26.7336 26.3767 27.1798 25.9323Z" fill="#D2D2D2"/>
</svg>
