<svg width="51" height="51" viewBox="0 0 51 51" fill="none" xmlns="http://www.w3.org/2000/svg">
<circle cx="25.5" cy="25.5" r="25.5" fill="#212121"/>
<path d="M33.7607 25.141C33.5702 25.141 33.3875 25.0653 33.2528 24.9306C33.1181 24.7959 33.0424 24.6132 33.0424 24.4226C33.0409 22.8991 32.435 21.4383 31.3576 20.3609C30.2803 19.2836 28.8195 18.6777 27.2959 18.6762C27.1054 18.6762 26.9227 18.6005 26.788 18.4658C26.6533 18.3311 26.5776 18.1484 26.5776 17.9579C26.5776 17.7673 26.6533 17.5846 26.788 17.4499C26.9227 17.3152 27.1054 17.2395 27.2959 17.2395C29.2004 17.2416 31.0262 17.9991 32.3729 19.3457C33.7195 20.6924 34.477 22.5182 34.479 24.4226C34.479 24.6132 34.4034 24.7959 34.2687 24.9306C34.1339 25.0653 33.9512 25.141 33.7607 25.141ZM31.6058 24.4226C31.6058 23.2796 31.1517 22.1834 30.3435 21.3751C29.5352 20.5669 28.439 20.1128 27.2959 20.1128C27.1054 20.1128 26.9227 20.1885 26.788 20.3232C26.6533 20.4579 26.5776 20.6406 26.5776 20.8311C26.5776 21.0216 26.6533 21.2043 26.788 21.339C26.9227 21.4737 27.1054 21.5494 27.2959 21.5494C28.058 21.5494 28.7888 21.8521 29.3276 22.391C29.8665 22.9298 30.1692 23.6606 30.1692 24.4226C30.1692 24.6132 30.2449 24.7959 30.3796 24.9306C30.5143 25.0653 30.697 25.141 30.8875 25.141C31.078 25.141 31.2607 25.0653 31.3954 24.9306C31.5301 24.7959 31.6058 24.6132 31.6058 24.4226ZM33.1739 33.1602L33.8275 32.4067C34.2436 31.9893 34.4772 31.424 34.4772 30.8346C34.4772 30.2453 34.2436 29.68 33.8275 29.2626C33.8053 29.2404 32.077 27.9108 32.077 27.9108C31.6622 27.5159 31.1113 27.2961 30.5386 27.2969C29.9659 27.2977 29.4156 27.5191 29.0019 27.9151L27.6328 29.0687C26.5153 28.6061 25.5001 27.9274 24.6456 27.0714C23.7911 26.2154 23.1141 25.1991 22.6535 24.0807L23.8028 22.7159C24.1991 22.3023 24.4208 21.7519 24.4217 21.179C24.4226 20.6062 24.2028 20.0551 23.8078 19.6401C23.8078 19.6401 22.4768 17.914 22.4545 17.8918C22.0447 17.4793 21.489 17.2446 20.9076 17.2384C20.3262 17.2322 19.7656 17.455 19.3471 17.8587L18.5211 18.577C13.6409 24.2388 24.1497 34.6665 29.9982 34.479C30.5888 34.4824 31.1741 34.3675 31.7195 34.141C32.2649 33.9144 32.7595 33.581 33.1739 33.1602Z" fill="#D2D2D2"/>
</svg>
